# MagicaVoxel @ Ephtracy

# group
o Mini

# material
mtllib seaweed2-1-Mini.mtl
usemtl palette

# normals
vn -1 0 0
vn 1 0 0
vn 0 0 1
vn 0 0 -1
vn 0 -1 0
vn 0 1 0

# texcoords
vt 0.939453 0.5
vt 0.943359 0.5
vt 0.947266 0.5
vt 0.951172 0.5
vt 0.955078 0.5
vt 0.958984 0.5
vt 0.962891 0.5
vt 0.966797 0.5

# verts
v -3.8 0.8 0.1
v -3.8 0.8 0
v -3.8 0.9 0.1
v -3.8 0.9 0
v -3.7 0.6 0.2
v -3.7 0.6 0.1
v -3.7 0.7 0.2
v -3.7 0.7 0.1
v -3.7 0.8 0.2
v -3.7 0.8 0.1
v -3.6 0.5 0.3
v -3.6 0.5 0.2
v -3.6 0.6 0.3
v -3.6 0.6 0.2
v -3.6 0.7 0.3
v -3.6 0.7 0.2
v -3.5 -0.1 0.4
v -3.5 -0.1 0.3
v -3.5 0 0.4
v -3.5 0 0.3
v -3.5 0.1 0.4
v -3.5 0.1 0.3
v -3.5 0.3 0.4
v -3.5 0.3 0.3
v -3.5 0.4 0.4
v -3.5 0.4 0.3
v -3.5 0.5 0.4
v -3.5 0.5 0.3
v -3.4 0.3 0.4
v -3.4 0.3 0.3
v -3.4 0.4 0.4
v -3.4 0.4 0.3
v -3.4 0.5 0.4
v -3.4 0.5 0.3
v -3.4 0.6 0.4
v -3.4 0.6 0.3
v -3.4 1.1 0.3
v -3.4 1.1 0.2
v -3.4 1.2 0.3
v -3.4 1.2 0.2
v -3.3 0.6 0.4
v -3.3 0.6 0.3
v -3.3 0.7 0.4
v -3.3 0.7 0.3
v -3.3 0.8 0.4
v -3.3 0.8 0.3
v -3.3 0.9 0.4
v -3.3 0.9 0.3
v -3.3 1 0.4
v -3.3 1 0.3
v -3.3 1.1 0.4
v -3.3 1.1 0.3
v -3.7 0.8 0.1
v -3.7 0.8 0
v -3.7 0.9 0.1
v -3.7 0.9 0
v -3.6 0.6 0.2
v -3.6 0.6 0.1
v -3.6 0.7 0.2
v -3.6 0.7 0.1
v -3.6 0.8 0.2
v -3.6 0.8 0.1
v -3.5 0.5 0.3
v -3.5 0.5 0.2
v -3.5 0.6 0.3
v -3.5 0.6 0.2
v -3.5 0.7 0.3
v -3.5 0.7 0.2
v -3.4 -0.1 0.4
v -3.4 -0.1 0.3
v -3.4 0 0.4
v -3.4 0 0.3
v -3.4 0.1 0.4
v -3.4 0.1 0.3
v -3.4 0.3 0.4
v -3.4 0.3 0.3
v -3.3 0 0.4
v -3.3 0 0.3
v -3.3 0.1 0.4
v -3.3 0.1 0.3
v -3.3 0.3 0.4
v -3.3 0.3 0.3
v -3.3 0.4 0.4
v -3.3 0.4 0.3
v -3.3 0.5 0.4
v -3.3 0.5 0.3
v -3.3 0.6 0.4
v -3.3 0.6 0.3
v -3.3 1.1 0.3
v -3.3 1.1 0.2
v -3.3 1.2 0.3
v -3.3 1.2 0.2
v -3.2 0.6 0.4
v -3.2 0.6 0.3
v -3.2 0.7 0.4
v -3.2 0.7 0.3
v -3.2 0.9 0.4
v -3.2 0.9 0.3
v -3.2 1 0.4
v -3.2 1 0.3
v -3.2 1.1 0.4
v -3.2 1.1 0.3
v -3.1 0.7 0.4
v -3.1 0.7 0.3
v -3.1 0.8 0.4
v -3.1 0.8 0.3
v -3.1 0.9 0.4
v -3.1 0.9 0.3
v -3.5 -0.1 0.4
v -3.5 0 0.4
v -3.5 0.1 0.4
v -3.5 0.3 0.4
v -3.5 0.4 0.4
v -3.5 0.5 0.4
v -3.4 -0.1 0.4
v -3.4 0 0.4
v -3.4 0.1 0.4
v -3.4 0.3 0.4
v -3.4 0.4 0.4
v -3.4 0.5 0.4
v -3.4 0.6 0.4
v -3.3 0 0.4
v -3.3 0.1 0.4
v -3.3 0.3 0.4
v -3.3 0.4 0.4
v -3.3 0.5 0.4
v -3.3 0.6 0.4
v -3.3 0.7 0.4
v -3.3 0.8 0.4
v -3.3 0.9 0.4
v -3.3 1 0.4
v -3.3 1.1 0.4
v -3.2 0.6 0.4
v -3.2 0.7 0.4
v -3.2 0.8 0.4
v -3.2 0.9 0.4
v -3.2 1 0.4
v -3.2 1.1 0.4
v -3.1 0.7 0.4
v -3.1 0.8 0.4
v -3.1 0.9 0.4
v -3.6 0.5 0.3
v -3.6 0.6 0.3
v -3.6 0.7 0.3
v -3.5 0.5 0.3
v -3.5 0.6 0.3
v -3.5 0.7 0.3
v -3.4 1.1 0.3
v -3.4 1.2 0.3
v -3.3 1.1 0.3
v -3.3 1.2 0.3
v -3.7 0.6 0.2
v -3.7 0.7 0.2
v -3.7 0.8 0.2
v -3.6 0.6 0.2
v -3.6 0.7 0.2
v -3.6 0.8 0.2
v -3.8 0.8 0.1
v -3.8 0.9 0.1
v -3.7 0.8 0.1
v -3.7 0.9 0.1
v -3.5 -0.1 0.3
v -3.5 0 0.3
v -3.5 0.1 0.3
v -3.5 0.3 0.3
v -3.5 0.4 0.3
v -3.5 0.5 0.3
v -3.4 -0.1 0.3
v -3.4 0 0.3
v -3.4 0.1 0.3
v -3.4 0.3 0.3
v -3.4 0.4 0.3
v -3.4 0.5 0.3
v -3.4 0.6 0.3
v -3.3 0 0.3
v -3.3 0.1 0.3
v -3.3 0.3 0.3
v -3.3 0.4 0.3
v -3.3 0.5 0.3
v -3.3 0.6 0.3
v -3.3 0.7 0.3
v -3.3 0.8 0.3
v -3.3 0.9 0.3
v -3.3 1 0.3
v -3.3 1.1 0.3
v -3.2 0.6 0.3
v -3.2 0.7 0.3
v -3.2 0.8 0.3
v -3.2 0.9 0.3
v -3.2 1 0.3
v -3.2 1.1 0.3
v -3.1 0.7 0.3
v -3.1 0.8 0.3
v -3.1 0.9 0.3
v -3.6 0.5 0.2
v -3.6 0.6 0.2
v -3.6 0.7 0.2
v -3.5 0.5 0.2
v -3.5 0.6 0.2
v -3.5 0.7 0.2
v -3.4 1.1 0.2
v -3.4 1.2 0.2
v -3.3 1.1 0.2
v -3.3 1.2 0.2
v -3.7 0.6 0.1
v -3.7 0.7 0.1
v -3.7 0.8 0.1
v -3.6 0.6 0.1
v -3.6 0.7 0.1
v -3.6 0.8 0.1
v -3.8 0.8 0
v -3.8 0.9 0
v -3.7 0.8 0
v -3.7 0.9 0
v -3.5 -0.1 0.4
v -3.4 -0.1 0.4
v -3.5 -0.1 0.3
v -3.4 -0.1 0.3
v -3.4 0 0.4
v -3.3 0 0.4
v -3.4 0 0.3
v -3.3 0 0.3
v -3.4 0.3 0.4
v -3.3 0.3 0.4
v -3.4 0.3 0.3
v -3.3 0.3 0.3
v -3.5 0.4 0.4
v -3.4 0.4 0.4
v -3.5 0.4 0.3
v -3.4 0.4 0.3
v -3.6 0.5 0.3
v -3.5 0.5 0.3
v -3.6 0.5 0.2
v -3.5 0.5 0.2
v -3.3 0.6 0.4
v -3.2 0.6 0.4
v -3.3 0.6 0.3
v -3.2 0.6 0.3
v -3.7 0.6 0.2
v -3.6 0.6 0.2
v -3.7 0.6 0.1
v -3.6 0.6 0.1
v -3.2 0.7 0.4
v -3.1 0.7 0.4
v -3.2 0.7 0.3
v -3.1 0.7 0.3
v -3.8 0.8 0.1
v -3.7 0.8 0.1
v -3.8 0.8 0
v -3.7 0.8 0
v -3.4 1.1 0.3
v -3.3 1.1 0.3
v -3.4 1.1 0.2
v -3.3 1.1 0.2
v -3.4 0.1 0.4
v -3.3 0.1 0.4
v -3.4 0.1 0.3
v -3.3 0.1 0.3
v -3.5 0.3 0.4
v -3.4 0.3 0.4
v -3.5 0.3 0.3
v -3.4 0.3 0.3
v -3.5 0.5 0.4
v -3.4 0.5 0.4
v -3.5 0.5 0.3
v -3.4 0.5 0.3
v -3.4 0.6 0.4
v -3.3 0.6 0.4
v -3.4 0.6 0.3
v -3.3 0.6 0.3
v -3.6 0.7 0.3
v -3.5 0.7 0.3
v -3.6 0.7 0.2
v -3.5 0.7 0.2
v -3.7 0.8 0.2
v -3.6 0.8 0.2
v -3.7 0.8 0.1
v -3.6 0.8 0.1
v -3.2 0.9 0.4
v -3.1 0.9 0.4
v -3.2 0.9 0.3
v -3.1 0.9 0.3
v -3.8 0.9 0.1
v -3.7 0.9 0.1
v -3.8 0.9 0
v -3.7 0.9 0
v -3.3 1.1 0.4
v -3.2 1.1 0.4
v -3.3 1.1 0.3
v -3.2 1.1 0.3
v -3.4 1.2 0.3
v -3.3 1.2 0.3
v -3.4 1.2 0.2
v -3.3 1.2 0.2

# faces
f 3/8/1 2/8/1 1/8/1
f 4/8/1 2/8/1 3/8/1
f 7/7/1 6/7/1 5/7/1
f 8/7/1 6/7/1 7/7/1
f 9/8/1 8/8/1 7/8/1
f 10/8/1 8/8/1 9/8/1
f 13/6/1 12/6/1 11/6/1
f 14/6/1 12/6/1 13/6/1
f 15/7/1 14/7/1 13/7/1
f 16/7/1 14/7/1 15/7/1
f 19/4/1 18/4/1 17/4/1
f 20/4/1 18/4/1 19/4/1
f 21/1/1 20/1/1 19/1/1
f 22/1/1 20/1/1 21/1/1
f 23/2/1 22/2/1 21/2/1
f 24/2/1 22/2/1 23/2/1
f 27/6/1 26/6/1 25/6/1
f 28/6/1 26/6/1 27/6/1
f 31/4/1 30/4/1 29/4/1
f 32/4/1 30/4/1 31/4/1
f 35/1/1 34/1/1 33/1/1
f 36/1/1 34/1/1 35/1/1
f 39/7/1 38/7/1 37/7/1
f 40/7/1 38/7/1 39/7/1
f 43/3/1 42/3/1 41/3/1
f 44/3/1 42/3/1 43/3/1
f 45/2/1 44/2/1 43/2/1
f 46/2/1 44/2/1 45/2/1
f 47/1/1 46/1/1 45/1/1
f 48/1/1 46/1/1 47/1/1
f 49/3/1 48/3/1 47/3/1
f 50/3/1 48/3/1 49/3/1
f 51/1/1 50/1/1 49/1/1
f 52/1/1 50/1/1 51/1/1
f 53/8/2 54/8/2 55/8/2
f 55/8/2 54/8/2 56/8/2
f 57/7/2 58/7/2 59/7/2
f 59/7/2 58/7/2 60/7/2
f 59/8/2 60/8/2 61/8/2
f 61/8/2 60/8/2 62/8/2
f 63/6/2 64/6/2 65/6/2
f 65/6/2 64/6/2 66/6/2
f 65/7/2 66/7/2 67/7/2
f 67/7/2 66/7/2 68/7/2
f 69/4/2 70/4/2 71/4/2
f 71/4/2 70/4/2 72/4/2
f 73/2/2 74/2/2 75/2/2
f 75/2/2 74/2/2 76/2/2
f 77/8/2 78/8/2 79/8/2
f 79/8/2 78/8/2 80/8/2
f 81/4/2 82/4/2 83/4/2
f 83/4/2 82/4/2 84/4/2
f 83/5/2 84/5/2 85/5/2
f 85/5/2 84/5/2 86/5/2
f 85/1/2 86/1/2 87/1/2
f 87/1/2 86/1/2 88/1/2
f 89/7/2 90/7/2 91/7/2
f 91/7/2 90/7/2 92/7/2
f 93/3/2 94/3/2 95/3/2
f 95/3/2 94/3/2 96/3/2
f 97/3/2 98/3/2 99/3/2
f 99/3/2 98/3/2 100/3/2
f 99/1/2 100/1/2 101/1/2
f 101/1/2 100/1/2 102/1/2
f 103/6/2 104/6/2 105/6/2
f 105/6/2 104/6/2 106/6/2
f 105/7/2 106/7/2 107/7/2
f 107/7/2 106/7/2 108/7/2
f 115/4/3 110/4/3 109/4/3
f 116/1/3 111/1/3 110/1/3
f 116/4/3 110/4/3 115/4/3
f 117/2/3 112/2/3 111/2/3
f 117/1/3 111/1/3 116/1/3
f 118/2/3 112/2/3 117/2/3
f 119/6/3 114/6/3 113/6/3
f 120/6/3 114/6/3 119/6/3
f 122/8/3 117/8/3 116/8/3
f 123/8/3 117/8/3 122/8/3
f 124/4/3 119/4/3 118/4/3
f 125/5/3 120/5/3 119/5/3
f 125/4/3 119/4/3 124/4/3
f 126/1/3 121/1/3 120/1/3
f 126/5/3 120/5/3 125/5/3
f 127/1/3 121/1/3 126/1/3
f 133/3/3 128/3/3 127/3/3
f 134/2/3 129/2/3 128/2/3
f 134/3/3 128/3/3 133/3/3
f 135/1/3 130/1/3 129/1/3
f 135/2/3 129/2/3 134/2/3
f 136/3/3 131/3/3 130/3/3
f 136/1/3 130/1/3 135/1/3
f 137/1/3 132/1/3 131/1/3
f 137/3/3 131/3/3 136/3/3
f 138/1/3 132/1/3 137/1/3
f 139/6/3 135/6/3 134/6/3
f 140/7/3 136/7/3 135/7/3
f 140/6/3 135/6/3 139/6/3
f 141/7/3 136/7/3 140/7/3
f 145/6/3 143/6/3 142/6/3
f 146/7/3 144/7/3 143/7/3
f 146/6/3 143/6/3 145/6/3
f 147/7/3 144/7/3 146/7/3
f 150/7/3 149/7/3 148/7/3
f 151/7/3 149/7/3 150/7/3
f 155/7/3 153/7/3 152/7/3
f 156/8/3 154/8/3 153/8/3
f 156/7/3 153/7/3 155/7/3
f 157/8/3 154/8/3 156/8/3
f 160/8/3 159/8/3 158/8/3
f 161/8/3 159/8/3 160/8/3
f 162/4/4 163/4/4 168/4/4
f 163/1/4 164/1/4 169/1/4
f 168/4/4 163/4/4 169/4/4
f 164/2/4 165/2/4 170/2/4
f 169/1/4 164/1/4 170/1/4
f 170/2/4 165/2/4 171/2/4
f 166/6/4 167/6/4 172/6/4
f 172/6/4 167/6/4 173/6/4
f 169/8/4 170/8/4 175/8/4
f 175/8/4 170/8/4 176/8/4
f 171/4/4 172/4/4 177/4/4
f 172/5/4 173/5/4 178/5/4
f 177/4/4 172/4/4 178/4/4
f 173/1/4 174/1/4 179/1/4
f 178/5/4 173/5/4 179/5/4
f 179/1/4 174/1/4 180/1/4
f 180/3/4 181/3/4 186/3/4
f 181/2/4 182/2/4 187/2/4
f 186/3/4 181/3/4 187/3/4
f 182/1/4 183/1/4 188/1/4
f 187/2/4 182/2/4 188/2/4
f 183/3/4 184/3/4 189/3/4
f 188/1/4 183/1/4 189/1/4
f 184/1/4 185/1/4 190/1/4
f 189/3/4 184/3/4 190/3/4
f 190/1/4 185/1/4 191/1/4
f 187/6/4 188/6/4 192/6/4
f 188/7/4 189/7/4 193/7/4
f 192/6/4 188/6/4 193/6/4
f 193/7/4 189/7/4 194/7/4
f 195/6/4 196/6/4 198/6/4
f 196/7/4 197/7/4 199/7/4
f 198/6/4 196/6/4 199/6/4
f 199/7/4 197/7/4 200/7/4
f 201/7/4 202/7/4 203/7/4
f 203/7/4 202/7/4 204/7/4
f 205/7/4 206/7/4 208/7/4
f 206/8/4 207/8/4 209/8/4
f 208/7/4 206/7/4 209/7/4
f 209/8/4 207/8/4 210/8/4
f 211/8/4 212/8/4 213/8/4
f 213/8/4 212/8/4 214/8/4
f 217/4/5 216/4/5 215/4/5
f 218/4/5 216/4/5 217/4/5
f 221/8/5 220/8/5 219/8/5
f 222/8/5 220/8/5 221/8/5
f 225/4/5 224/4/5 223/4/5
f 226/4/5 224/4/5 225/4/5
f 229/6/5 228/6/5 227/6/5
f 230/6/5 228/6/5 229/6/5
f 233/6/5 232/6/5 231/6/5
f 234/6/5 232/6/5 233/6/5
f 237/3/5 236/3/5 235/3/5
f 238/3/5 236/3/5 237/3/5
f 241/7/5 240/7/5 239/7/5
f 242/7/5 240/7/5 241/7/5
f 245/6/5 244/6/5 243/6/5
f 246/6/5 244/6/5 245/6/5
f 249/8/5 248/8/5 247/8/5
f 250/8/5 248/8/5 249/8/5
f 253/7/5 252/7/5 251/7/5
f 254/7/5 252/7/5 253/7/5
f 255/8/6 256/8/6 257/8/6
f 257/8/6 256/8/6 258/8/6
f 259/2/6 260/2/6 261/2/6
f 261/2/6 260/2/6 262/2/6
f 263/6/6 264/6/6 265/6/6
f 265/6/6 264/6/6 266/6/6
f 267/1/6 268/1/6 269/1/6
f 269/1/6 268/1/6 270/1/6
f 271/7/6 272/7/6 273/7/6
f 273/7/6 272/7/6 274/7/6
f 275/8/6 276/8/6 277/8/6
f 277/8/6 276/8/6 278/8/6
f 279/7/6 280/7/6 281/7/6
f 281/7/6 280/7/6 282/7/6
f 283/8/6 284/8/6 285/8/6
f 285/8/6 284/8/6 286/8/6
f 287/1/6 288/1/6 289/1/6
f 289/1/6 288/1/6 290/1/6
f 291/7/6 292/7/6 293/7/6
f 293/7/6 292/7/6 294/7/6
