# MagicaVoxel @ Ephtracy

# group
o 

# material
mtllib coral2.mtl
usemtl palette

# normals
vn -1 0 0
vn 1 0 0
vn 0 0 1
vn 0 0 -1
vn 0 -1 0
vn 0 1 0

# texcoords
vt 0.939453 0.5
vt 0.943359 0.5
vt 0.947266 0.5
vt 0.951172 0.5
vt 0.958984 0.5
vt 0.966797 0.5

# verts
v 3.9 2 -3.1
v 3.9 2 -3.4
v 3.9 2.2 -3.1
v 3.9 2.2 -3.4
v 3.9 2.4 -3.1
v 3.9 2.4 -3.4
v 3.9 2.6 -3.1
v 3.9 2.6 -3.4
v 3.9 2.8 -3.1
v 3.9 2.8 -3.4
v 3.9 3 -3.1
v 3.9 3 -3.2
v 3.9 3 -3.3
v 3.9 3 -3.4
v 3.9 3.1 -3.2
v 3.9 3.1 -3.3
v 4 3 -3.1
v 4 3 -3.2
v 4 3 -3.3
v 4 3 -3.4
v 4 3.1 -3.1
v 4 3.1 -3.2
v 4 3.1 -3.3
v 4 3.1 -3.4
v 4.1 2 -3.7
v 4.1 2 -3.9
v 4.1 2.2 -3.7
v 4.1 2.2 -3.9
v 4.1 2.4 -3.7
v 4.1 2.4 -3.9
v 4.1 2.6 -3.7
v 4.1 2.6 -3.9
v 4.1 2.8 -3.7
v 4.1 2.8 -3.8
v 4.1 2.9 -3.8
v 4.1 2.9 -3.9
v 4.1 3 -3.2
v 4.1 3 -3.3
v 4.1 3.1 -3.2
v 4.1 3.1 -3.3
v 4.2 2.8 -3.7
v 4.2 2.8 -3.8
v 4.2 2.9 -3.7
v 4.2 2.9 -3.8
v 4.3 2 -3.4
v 4.3 2 -3.7
v 4.3 2.2 -3.4
v 4.3 2.2 -3.7
v 4.3 2.4 -3.4
v 4.3 2.4 -3.7
v 4.3 2.6 -3.4
v 4.3 2.6 -3.7
v 4.3 2.8 -3.4
v 4.3 2.8 -3.7
v 4.3 2.9 -3.7
v 4.3 3 -3.4
v 4.3 3 -3.7
v 4.3 3.2 -3.4
v 4.3 3.2 -3.5
v 4.3 3.2 -3.6
v 4.3 3.2 -3.7
v 4.3 3.3 -3.5
v 4.3 3.3 -3.6
v 4.4 3.2 -3.4
v 4.4 3.2 -3.5
v 4.4 3.2 -3.6
v 4.4 3.2 -3.7
v 4.4 3.3 -3.4
v 4.4 3.3 -3.5
v 4.4 3.3 -3.6
v 4.4 3.3 -3.7
v 4.5 3.2 -3.5
v 4.5 3.2 -3.6
v 4.5 3.3 -3.5
v 4.5 3.3 -3.6
v 4.6 2 -3.2
v 4.6 2 -3.4
v 4.6 2 -3.7
v 4.6 2 -3.8
v 4.6 2.2 -3.2
v 4.6 2.2 -3.4
v 4.6 2.2 -3.7
v 4.6 2.2 -3.8
v 4.6 2.4 -3.2
v 4.6 2.4 -3.4
v 4.6 2.4 -3.7
v 4.6 2.4 -3.8
v 4.6 2.6 -3.2
v 4.6 2.6 -3.4
v 4.6 2.6 -3.7
v 4.6 2.6 -3.8
v 4.6 2.8 -3.2
v 4.6 2.8 -3.3
v 4.6 2.8 -3.4
v 4.6 2.8 -3.7
v 4.6 2.8 -3.8
v 4.6 2.9 -3.3
v 4.6 2.9 -3.4
v 4.6 3 -3.7
v 4.6 3 -3.8
v 4.7 2.8 -3.2
v 4.7 2.8 -3.3
v 4.7 2.8 -3.4
v 4.7 2.8 -3.5
v 4.7 2.9 -3.2
v 4.7 2.9 -3.3
v 4.7 2.9 -3.4
v 4.7 2.9 -3.5
v 4.7 3 -3.7
v 4.7 3 -3.8
v 4.7 3.1 -3.7
v 4.7 3.1 -3.8
v 4.8 2.8 -3.3
v 4.8 2.8 -3.4
v 4.8 2.9 -3.3
v 4.8 2.9 -3.4
v 4 3 -3.2
v 4 3 -3.3
v 4 3.1 -3.2
v 4 3.1 -3.3
v 4.1 3 -3.1
v 4.1 3 -3.2
v 4.1 3 -3.3
v 4.1 3 -3.4
v 4.1 3.1 -3.1
v 4.1 3.1 -3.2
v 4.1 3.1 -3.3
v 4.1 3.1 -3.4
v 4.2 2 -3.1
v 4.2 2 -3.4
v 4.2 2.2 -3.1
v 4.2 2.2 -3.4
v 4.2 2.4 -3.1
v 4.2 2.4 -3.4
v 4.2 2.6 -3.1
v 4.2 2.6 -3.4
v 4.2 2.8 -3.1
v 4.2 2.8 -3.4
v 4.2 2.8 -3.8
v 4.2 2.8 -3.9
v 4.2 2.9 -3.8
v 4.2 2.9 -3.9
v 4.2 3 -3.1
v 4.2 3 -3.2
v 4.2 3 -3.3
v 4.2 3 -3.4
v 4.2 3.1 -3.2
v 4.2 3.1 -3.3
v 4.3 2 -3.7
v 4.3 2 -3.9
v 4.3 2.2 -3.7
v 4.3 2.2 -3.9
v 4.3 2.4 -3.7
v 4.3 2.4 -3.9
v 4.3 2.6 -3.7
v 4.3 2.6 -3.9
v 4.3 2.8 -3.7
v 4.3 2.8 -3.8
v 4.3 2.8 -3.9
v 4.3 2.9 -3.7
v 4.3 2.9 -3.8
v 4.4 3.2 -3.5
v 4.4 3.2 -3.6
v 4.4 3.3 -3.5
v 4.4 3.3 -3.6
v 4.5 3.2 -3.4
v 4.5 3.2 -3.5
v 4.5 3.2 -3.6
v 4.5 3.2 -3.7
v 4.5 3.3 -3.4
v 4.5 3.3 -3.5
v 4.5 3.3 -3.6
v 4.5 3.3 -3.7
v 4.6 2 -3.5
v 4.6 2 -3.6
v 4.6 2.2 -3.5
v 4.6 2.2 -3.6
v 4.6 2.4 -3.5
v 4.6 2.4 -3.6
v 4.6 2.6 -3.5
v 4.6 2.6 -3.6
v 4.6 2.8 -3.4
v 4.6 2.8 -3.5
v 4.6 2.8 -3.6
v 4.6 2.9 -3.4
v 4.6 3 -3.4
v 4.6 3 -3.6
v 4.6 3.1 -3.6
v 4.6 3.1 -3.7
v 4.6 3.2 -3.4
v 4.6 3.2 -3.5
v 4.6 3.2 -3.6
v 4.6 3.2 -3.7
v 4.6 3.3 -3.5
v 4.6 3.3 -3.6
v 4.7 2.8 -3.3
v 4.7 2.8 -3.4
v 4.7 2.9 -3.3
v 4.7 2.9 -3.4
v 4.7 3 -3.6
v 4.7 3 -3.7
v 4.7 3.1 -3.6
v 4.7 3.1 -3.7
v 4.8 2 -3.6
v 4.8 2 -3.8
v 4.8 2.2 -3.6
v 4.8 2.2 -3.8
v 4.8 2.4 -3.6
v 4.8 2.4 -3.8
v 4.8 2.6 -3.6
v 4.8 2.6 -3.8
v 4.8 2.8 -3.2
v 4.8 2.8 -3.3
v 4.8 2.8 -3.4
v 4.8 2.8 -3.5
v 4.8 2.8 -3.6
v 4.8 2.8 -3.8
v 4.8 2.9 -3.2
v 4.8 2.9 -3.3
v 4.8 2.9 -3.4
v 4.8 2.9 -3.5
v 4.8 3 -3.6
v 4.8 3 -3.7
v 4.8 3.1 -3.7
v 4.8 3.1 -3.8
v 4.9 2 -3.2
v 4.9 2 -3.5
v 4.9 2.2 -3.2
v 4.9 2.2 -3.5
v 4.9 2.4 -3.2
v 4.9 2.4 -3.5
v 4.9 2.6 -3.2
v 4.9 2.6 -3.5
v 4.9 2.8 -3.2
v 4.9 2.8 -3.3
v 4.9 2.8 -3.4
v 4.9 2.8 -3.5
v 4.9 2.9 -3.3
v 4.9 2.9 -3.4
v 3.9 2 -3.1
v 3.9 2.2 -3.1
v 3.9 2.4 -3.1
v 3.9 2.6 -3.1
v 3.9 2.8 -3.1
v 3.9 3 -3.1
v 4 3 -3.1
v 4 3.1 -3.1
v 4.1 3 -3.1
v 4.1 3.1 -3.1
v 4.2 2 -3.1
v 4.2 2.2 -3.1
v 4.2 2.4 -3.1
v 4.2 2.6 -3.1
v 4.2 2.8 -3.1
v 4.2 3 -3.1
v 3.9 3 -3.2
v 3.9 3.1 -3.2
v 4 3 -3.2
v 4 3.1 -3.2
v 4.1 3 -3.2
v 4.1 3.1 -3.2
v 4.2 3 -3.2
v 4.2 3.1 -3.2
v 4.6 2 -3.2
v 4.6 2.2 -3.2
v 4.6 2.4 -3.2
v 4.6 2.6 -3.2
v 4.6 2.8 -3.2
v 4.7 2.8 -3.2
v 4.7 2.9 -3.2
v 4.8 2.8 -3.2
v 4.8 2.9 -3.2
v 4.9 2 -3.2
v 4.9 2.2 -3.2
v 4.9 2.4 -3.2
v 4.9 2.6 -3.2
v 4.9 2.8 -3.2
v 4 3 -3.3
v 4 3.1 -3.3
v 4.1 3 -3.3
v 4.1 3.1 -3.3
v 4.6 2.8 -3.3
v 4.6 2.9 -3.3
v 4.7 2.8 -3.3
v 4.7 2.9 -3.3
v 4.8 2.8 -3.3
v 4.8 2.9 -3.3
v 4.9 2.8 -3.3
v 4.9 2.9 -3.3
v 4.3 2 -3.4
v 4.3 2.2 -3.4
v 4.3 2.4 -3.4
v 4.3 2.6 -3.4
v 4.3 2.8 -3.4
v 4.3 3 -3.4
v 4.3 3.2 -3.4
v 4.4 3.2 -3.4
v 4.4 3.3 -3.4
v 4.5 3.2 -3.4
v 4.5 3.3 -3.4
v 4.6 2 -3.4
v 4.6 2.2 -3.4
v 4.6 2.4 -3.4
v 4.6 2.6 -3.4
v 4.6 2.8 -3.4
v 4.6 2.9 -3.4
v 4.6 3 -3.4
v 4.6 3.2 -3.4
v 4.7 2.8 -3.4
v 4.7 2.9 -3.4
v 4.8 2.8 -3.4
v 4.8 2.9 -3.4
v 4.3 3.2 -3.5
v 4.3 3.3 -3.5
v 4.4 3.2 -3.5
v 4.4 3.3 -3.5
v 4.5 3.2 -3.5
v 4.5 3.3 -3.5
v 4.6 3.2 -3.5
v 4.6 3.3 -3.5
v 4.4 3.2 -3.6
v 4.4 3.3 -3.6
v 4.5 3.2 -3.6
v 4.5 3.3 -3.6
v 4.6 2 -3.6
v 4.6 2.2 -3.6
v 4.6 2.4 -3.6
v 4.6 2.6 -3.6
v 4.6 2.8 -3.6
v 4.6 3 -3.6
v 4.6 3.1 -3.6
v 4.7 3 -3.6
v 4.7 3.1 -3.6
v 4.8 2 -3.6
v 4.8 2.2 -3.6
v 4.8 2.4 -3.6
v 4.8 2.6 -3.6
v 4.8 2.8 -3.6
v 4.8 3 -3.6
v 4.1 2 -3.7
v 4.1 2.2 -3.7
v 4.1 2.4 -3.7
v 4.1 2.6 -3.7
v 4.1 2.8 -3.7
v 4.2 2.8 -3.7
v 4.2 2.9 -3.7
v 4.3 2 -3.7
v 4.3 2.2 -3.7
v 4.3 2.4 -3.7
v 4.3 2.6 -3.7
v 4.3 2.8 -3.7
v 4.3 2.9 -3.7
v 4.7 3 -3.7
v 4.7 3.1 -3.7
v 4.8 3 -3.7
v 4.8 3.1 -3.7
v 4.1 2.8 -3.8
v 4.1 2.9 -3.8
v 4.2 2.8 -3.8
v 4.2 2.9 -3.8
v 4 3 -3.2
v 4 3.1 -3.2
v 4.1 3 -3.2
v 4.1 3.1 -3.2
v 3.9 3 -3.3
v 3.9 3.1 -3.3
v 4 3 -3.3
v 4 3.1 -3.3
v 4.1 3 -3.3
v 4.1 3.1 -3.3
v 4.2 3 -3.3
v 4.2 3.1 -3.3
v 4.7 2.8 -3.3
v 4.7 2.9 -3.3
v 4.8 2.8 -3.3
v 4.8 2.9 -3.3
v 3.9 2 -3.4
v 3.9 2.2 -3.4
v 3.9 2.4 -3.4
v 3.9 2.6 -3.4
v 3.9 2.8 -3.4
v 3.9 3 -3.4
v 4 3 -3.4
v 4 3.1 -3.4
v 4.1 3 -3.4
v 4.1 3.1 -3.4
v 4.2 2 -3.4
v 4.2 2.2 -3.4
v 4.2 2.4 -3.4
v 4.2 2.6 -3.4
v 4.2 2.8 -3.4
v 4.2 3 -3.4
v 4.6 2.8 -3.4
v 4.6 2.9 -3.4
v 4.7 2.8 -3.4
v 4.7 2.9 -3.4
v 4.8 2.8 -3.4
v 4.8 2.9 -3.4
v 4.9 2.8 -3.4
v 4.9 2.9 -3.4
v 4.4 3.2 -3.5
v 4.4 3.3 -3.5
v 4.5 3.2 -3.5
v 4.5 3.3 -3.5
v 4.6 2 -3.5
v 4.6 2.2 -3.5
v 4.6 2.4 -3.5
v 4.6 2.6 -3.5
v 4.6 2.8 -3.5
v 4.7 2.8 -3.5
v 4.7 2.9 -3.5
v 4.8 2.8 -3.5
v 4.8 2.9 -3.5
v 4.9 2 -3.5
v 4.9 2.2 -3.5
v 4.9 2.4 -3.5
v 4.9 2.6 -3.5
v 4.9 2.8 -3.5
v 4.3 3.2 -3.6
v 4.3 3.3 -3.6
v 4.4 3.2 -3.6
v 4.4 3.3 -3.6
v 4.5 3.2 -3.6
v 4.5 3.3 -3.6
v 4.6 3.2 -3.6
v 4.6 3.3 -3.6
v 4.3 2 -3.7
v 4.3 2.2 -3.7
v 4.3 2.4 -3.7
v 4.3 2.6 -3.7
v 4.3 2.8 -3.7
v 4.3 2.9 -3.7
v 4.3 3 -3.7
v 4.3 3.2 -3.7
v 4.4 3.2 -3.7
v 4.4 3.3 -3.7
v 4.5 3.2 -3.7
v 4.5 3.3 -3.7
v 4.6 2 -3.7
v 4.6 2.2 -3.7
v 4.6 2.4 -3.7
v 4.6 2.6 -3.7
v 4.6 2.8 -3.7
v 4.6 3 -3.7
v 4.6 3.1 -3.7
v 4.6 3.2 -3.7
v 4.7 3 -3.7
v 4.7 3.1 -3.7
v 4.2 2.8 -3.8
v 4.2 2.9 -3.8
v 4.3 2.8 -3.8
v 4.3 2.9 -3.8
v 4.6 2 -3.8
v 4.6 2.2 -3.8
v 4.6 2.4 -3.8
v 4.6 2.6 -3.8
v 4.6 2.8 -3.8
v 4.6 3 -3.8
v 4.7 3 -3.8
v 4.7 3.1 -3.8
v 4.8 2 -3.8
v 4.8 2.2 -3.8
v 4.8 2.4 -3.8
v 4.8 2.6 -3.8
v 4.8 2.8 -3.8
v 4.8 3.1 -3.8
v 4.1 2 -3.9
v 4.1 2.2 -3.9
v 4.1 2.4 -3.9
v 4.1 2.6 -3.9
v 4.1 2.9 -3.9
v 4.2 2.8 -3.9
v 4.2 2.9 -3.9
v 4.3 2 -3.9
v 4.3 2.2 -3.9
v 4.3 2.4 -3.9
v 4.3 2.6 -3.9
v 4.3 2.8 -3.9
v 3.9 2 -3.1
v 4.2 2 -3.1
v 4.6 2 -3.2
v 4.9 2 -3.2
v 3.9 2 -3.4
v 4.2 2 -3.4
v 4.3 2 -3.4
v 4.6 2 -3.4
v 4.6 2 -3.5
v 4.9 2 -3.5
v 4.6 2 -3.6
v 4.8 2 -3.6
v 4.1 2 -3.7
v 4.3 2 -3.7
v 4.6 2 -3.7
v 4.6 2 -3.8
v 4.8 2 -3.8
v 4.1 2 -3.9
v 4.3 2 -3.9
v 4.6 2.8 -3.2
v 4.7 2.8 -3.2
v 4.8 2.8 -3.2
v 4.9 2.8 -3.2
v 4.6 2.8 -3.3
v 4.7 2.8 -3.3
v 4.8 2.8 -3.3
v 4.9 2.8 -3.3
v 4.6 2.8 -3.4
v 4.7 2.8 -3.4
v 4.8 2.8 -3.4
v 4.9 2.8 -3.4
v 4.6 2.8 -3.5
v 4.7 2.8 -3.5
v 4.8 2.8 -3.5
v 4.9 2.8 -3.5
v 4.1 2.8 -3.7
v 4.2 2.8 -3.7
v 4.1 2.8 -3.8
v 4.2 2.8 -3.8
v 4.3 2.8 -3.8
v 4.2 2.8 -3.9
v 4.3 2.8 -3.9
v 4.7 2.9 -3.2
v 4.8 2.9 -3.2
v 4.6 2.9 -3.3
v 4.7 2.9 -3.3
v 4.8 2.9 -3.3
v 4.9 2.9 -3.3
v 4.6 2.9 -3.4
v 4.7 2.9 -3.4
v 4.8 2.9 -3.4
v 4.9 2.9 -3.4
v 4.7 2.9 -3.5
v 4.8 2.9 -3.5
v 4.2 2.9 -3.7
v 4.3 2.9 -3.7
v 4.1 2.9 -3.8
v 4.2 2.9 -3.8
v 4.3 2.9 -3.8
v 4.1 2.9 -3.9
v 4.2 2.9 -3.9
v 3.9 3 -3.1
v 4 3 -3.1
v 4.1 3 -3.1
v 4.2 3 -3.1
v 3.9 3 -3.2
v 4 3 -3.2
v 4.1 3 -3.2
v 4.2 3 -3.2
v 3.9 3 -3.3
v 4 3 -3.3
v 4.1 3 -3.3
v 4.2 3 -3.3
v 3.9 3 -3.4
v 4 3 -3.4
v 4.1 3 -3.4
v 4.2 3 -3.4
v 4.7 3 -3.6
v 4.8 3 -3.6
v 4.6 3 -3.7
v 4.7 3 -3.7
v 4.8 3 -3.7
v 4.6 3 -3.8
v 4.7 3 -3.8
v 4 3.1 -3.1
v 4.1 3.1 -3.1
v 3.9 3.1 -3.2
v 4 3.1 -3.2
v 4.1 3.1 -3.2
v 4.2 3.1 -3.2
v 3.9 3.1 -3.3
v 4 3.1 -3.3
v 4.1 3.1 -3.3
v 4.2 3.1 -3.3
v 4 3.1 -3.4
v 4.1 3.1 -3.4
v 4.6 3.1 -3.6
v 4.7 3.1 -3.6
v 4.6 3.1 -3.7
v 4.7 3.1 -3.7
v 4.8 3.1 -3.7
v 4.7 3.1 -3.8
v 4.8 3.1 -3.8
v 4.3 3.2 -3.4
v 4.4 3.2 -3.4
v 4.5 3.2 -3.4
v 4.6 3.2 -3.4
v 4.3 3.2 -3.5
v 4.4 3.2 -3.5
v 4.5 3.2 -3.5
v 4.6 3.2 -3.5
v 4.3 3.2 -3.6
v 4.4 3.2 -3.6
v 4.5 3.2 -3.6
v 4.6 3.2 -3.6
v 4.3 3.2 -3.7
v 4.4 3.2 -3.7
v 4.5 3.2 -3.7
v 4.6 3.2 -3.7
v 4.4 3.3 -3.4
v 4.5 3.3 -3.4
v 4.3 3.3 -3.5
v 4.4 3.3 -3.5
v 4.5 3.3 -3.5
v 4.6 3.3 -3.5
v 4.3 3.3 -3.6
v 4.4 3.3 -3.6
v 4.5 3.3 -3.6
v 4.6 3.3 -3.6
v 4.4 3.3 -3.7
v 4.5 3.3 -3.7

# faces
f 3/5/1 2/5/1 1/5/1
f 4/5/1 2/5/1 3/5/1
f 5/4/1 4/4/1 3/4/1
f 6/4/1 4/4/1 5/4/1
f 7/3/1 6/3/1 5/3/1
f 8/3/1 6/3/1 7/3/1
f 9/2/1 8/2/1 7/2/1
f 10/2/1 8/2/1 9/2/1
f 11/1/1 10/1/1 9/1/1
f 12/1/1 10/1/1 11/1/1
f 13/1/1 10/1/1 12/1/1
f 14/1/1 10/1/1 13/1/1
f 15/1/1 13/1/1 12/1/1
f 16/1/1 13/1/1 15/1/1
f 21/1/1 18/1/1 17/1/1
f 22/1/1 18/1/1 21/1/1
f 23/1/1 20/1/1 19/1/1
f 24/1/1 20/1/1 23/1/1
f 27/4/1 26/4/1 25/4/1
f 28/4/1 26/4/1 27/4/1
f 29/3/1 28/3/1 27/3/1
f 30/3/1 28/3/1 29/3/1
f 31/2/1 30/2/1 29/2/1
f 32/2/1 30/2/1 31/2/1
f 33/1/1 32/1/1 31/1/1
f 34/1/1 32/1/1 33/1/1
f 35/1/1 32/1/1 34/1/1
f 36/1/1 32/1/1 35/1/1
f 39/1/1 38/1/1 37/1/1
f 40/1/1 38/1/1 39/1/1
f 43/1/1 42/1/1 41/1/1
f 44/1/1 42/1/1 43/1/1
f 47/6/1 46/6/1 45/6/1
f 48/6/1 46/6/1 47/6/1
f 49/5/1 48/5/1 47/5/1
f 50/5/1 48/5/1 49/5/1
f 51/4/1 50/4/1 49/4/1
f 52/4/1 50/4/1 51/4/1
f 53/3/1 52/3/1 51/3/1
f 54/3/1 52/3/1 53/3/1
f 55/2/1 54/2/1 53/2/1
f 56/2/1 55/2/1 53/2/1
f 57/2/1 55/2/1 56/2/1
f 58/1/1 57/1/1 56/1/1
f 59/1/1 57/1/1 58/1/1
f 60/1/1 57/1/1 59/1/1
f 61/1/1 57/1/1 60/1/1
f 62/1/1 60/1/1 59/1/1
f 63/1/1 60/1/1 62/1/1
f 68/1/1 65/1/1 64/1/1
f 69/1/1 65/1/1 68/1/1
f 70/1/1 67/1/1 66/1/1
f 71/1/1 67/1/1 70/1/1
f 74/1/1 73/1/1 72/1/1
f 75/1/1 73/1/1 74/1/1
f 80/4/1 77/4/1 76/4/1
f 81/4/1 77/4/1 80/4/1
f 82/5/1 79/5/1 78/5/1
f 83/5/1 79/5/1 82/5/1
f 84/3/1 81/3/1 80/3/1
f 85/3/1 81/3/1 84/3/1
f 86/4/1 83/4/1 82/4/1
f 87/4/1 83/4/1 86/4/1
f 88/2/1 85/2/1 84/2/1
f 89/2/1 85/2/1 88/2/1
f 90/3/1 87/3/1 86/3/1
f 91/3/1 87/3/1 90/3/1
f 92/1/1 89/1/1 88/1/1
f 93/1/1 89/1/1 92/1/1
f 94/1/1 89/1/1 93/1/1
f 95/2/1 91/2/1 90/2/1
f 96/2/1 91/2/1 95/2/1
f 97/1/1 94/1/1 93/1/1
f 98/1/1 94/1/1 97/1/1
f 99/1/1 96/1/1 95/1/1
f 100/1/1 96/1/1 99/1/1
f 105/1/1 102/1/1 101/1/1
f 106/1/1 102/1/1 105/1/1
f 107/1/1 104/1/1 103/1/1
f 108/1/1 104/1/1 107/1/1
f 111/1/1 110/1/1 109/1/1
f 112/1/1 110/1/1 111/1/1
f 115/1/1 114/1/1 113/1/1
f 116/1/1 114/1/1 115/1/1
f 117/1/2 118/1/2 119/1/2
f 119/1/2 118/1/2 120/1/2
f 121/1/2 122/1/2 125/1/2
f 125/1/2 122/1/2 126/1/2
f 123/1/2 124/1/2 127/1/2
f 127/1/2 124/1/2 128/1/2
f 129/5/2 130/5/2 131/5/2
f 131/5/2 130/5/2 132/5/2
f 131/4/2 132/4/2 133/4/2
f 133/4/2 132/4/2 134/4/2
f 133/3/2 134/3/2 135/3/2
f 135/3/2 134/3/2 136/3/2
f 135/2/2 136/2/2 137/2/2
f 137/2/2 136/2/2 138/2/2
f 139/1/2 140/1/2 141/1/2
f 141/1/2 140/1/2 142/1/2
f 137/1/2 138/1/2 143/1/2
f 143/1/2 138/1/2 144/1/2
f 144/1/2 138/1/2 145/1/2
f 145/1/2 138/1/2 146/1/2
f 144/1/2 145/1/2 147/1/2
f 147/1/2 145/1/2 148/1/2
f 149/4/2 150/4/2 151/4/2
f 151/4/2 150/4/2 152/4/2
f 151/3/2 152/3/2 153/3/2
f 153/3/2 152/3/2 154/3/2
f 153/2/2 154/2/2 155/2/2
f 155/2/2 154/2/2 156/2/2
f 155/1/2 156/1/2 157/1/2
f 157/1/2 156/1/2 158/1/2
f 158/1/2 156/1/2 159/1/2
f 157/1/2 158/1/2 160/1/2
f 160/1/2 158/1/2 161/1/2
f 162/1/2 163/1/2 164/1/2
f 164/1/2 163/1/2 165/1/2
f 166/1/2 167/1/2 170/1/2
f 170/1/2 167/1/2 171/1/2
f 168/1/2 169/1/2 172/1/2
f 172/1/2 169/1/2 173/1/2
f 174/6/2 175/6/2 176/6/2
f 176/6/2 175/6/2 177/6/2
f 176/5/2 177/5/2 178/5/2
f 178/5/2 177/5/2 179/5/2
f 178/4/2 179/4/2 180/4/2
f 180/4/2 179/4/2 181/4/2
f 180/3/2 181/3/2 183/3/2
f 183/3/2 181/3/2 184/3/2
f 182/2/2 183/2/2 185/2/2
f 183/2/2 184/2/2 185/2/2
f 185/2/2 184/2/2 186/2/2
f 186/2/2 184/2/2 187/2/2
f 186/1/2 187/1/2 188/1/2
f 186/1/2 188/1/2 190/1/2
f 188/1/2 189/1/2 190/1/2
f 190/1/2 189/1/2 191/1/2
f 191/1/2 189/1/2 192/1/2
f 192/1/2 189/1/2 193/1/2
f 191/1/2 192/1/2 194/1/2
f 194/1/2 192/1/2 195/1/2
f 196/1/2 197/1/2 198/1/2
f 198/1/2 197/1/2 199/1/2
f 200/1/2 201/1/2 202/1/2
f 202/1/2 201/1/2 203/1/2
f 204/5/2 205/5/2 206/5/2
f 206/5/2 205/5/2 207/5/2
f 206/4/2 207/4/2 208/4/2
f 208/4/2 207/4/2 209/4/2
f 208/3/2 209/3/2 210/3/2
f 210/3/2 209/3/2 211/3/2
f 210/2/2 211/2/2 216/2/2
f 216/2/2 211/2/2 217/2/2
f 212/1/2 213/1/2 218/1/2
f 218/1/2 213/1/2 219/1/2
f 214/1/2 215/1/2 220/1/2
f 220/1/2 215/1/2 221/1/2
f 216/1/2 217/1/2 222/1/2
f 222/1/2 217/1/2 223/1/2
f 223/1/2 217/1/2 224/1/2
f 224/1/2 217/1/2 225/1/2
f 226/4/2 227/4/2 228/4/2
f 228/4/2 227/4/2 229/4/2
f 228/3/2 229/3/2 230/3/2
f 230/3/2 229/3/2 231/3/2
f 230/2/2 231/2/2 232/2/2
f 232/2/2 231/2/2 233/2/2
f 232/1/2 233/1/2 234/1/2
f 234/1/2 233/1/2 235/1/2
f 235/1/2 233/1/2 236/1/2
f 236/1/2 233/1/2 237/1/2
f 235/1/2 236/1/2 238/1/2
f 238/1/2 236/1/2 239/1/2
f 246/1/3 245/1/3 244/1/3
f 248/1/3 246/1/3 244/1/3
f 248/1/3 247/1/3 246/1/3
f 249/1/3 247/1/3 248/1/3
f 250/5/3 241/5/3 240/5/3
f 251/4/3 242/4/3 241/4/3
f 251/5/3 241/5/3 250/5/3
f 252/3/3 243/3/3 242/3/3
f 252/4/3 242/4/3 251/4/3
f 253/2/3 244/2/3 243/2/3
f 253/3/3 243/3/3 252/3/3
f 254/1/3 248/1/3 244/1/3
f 254/2/3 244/2/3 253/2/3
f 255/1/3 248/1/3 254/1/3
f 258/1/3 257/1/3 256/1/3
f 259/1/3 257/1/3 258/1/3
f 262/1/3 261/1/3 260/1/3
f 263/1/3 261/1/3 262/1/3
f 269/1/3 268/1/3 267/1/3
f 271/1/3 269/1/3 267/1/3
f 271/1/3 270/1/3 269/1/3
f 272/1/3 270/1/3 271/1/3
f 273/4/3 265/4/3 264/4/3
f 274/3/3 266/3/3 265/3/3
f 274/4/3 265/4/3 273/4/3
f 275/2/3 267/2/3 266/2/3
f 275/3/3 266/3/3 274/3/3
f 276/1/3 271/1/3 267/1/3
f 276/2/3 267/2/3 275/2/3
f 277/1/3 271/1/3 276/1/3
f 280/1/3 279/1/3 278/1/3
f 281/1/3 279/1/3 280/1/3
f 284/1/3 283/1/3 282/1/3
f 285/1/3 283/1/3 284/1/3
f 288/1/3 287/1/3 286/1/3
f 289/1/3 287/1/3 288/1/3
f 297/1/3 296/1/3 295/1/3
f 299/1/3 297/1/3 295/1/3
f 299/1/3 298/1/3 297/1/3
f 300/1/3 298/1/3 299/1/3
f 301/6/3 291/6/3 290/6/3
f 302/5/3 292/5/3 291/5/3
f 302/6/3 291/6/3 301/6/3
f 303/4/3 293/4/3 292/4/3
f 303/5/3 292/5/3 302/5/3
f 304/3/3 294/3/3 293/3/3
f 304/4/3 293/4/3 303/4/3
f 305/2/3 295/2/3 294/2/3
f 305/3/3 294/3/3 304/3/3
f 306/2/3 295/2/3 305/2/3
f 307/1/3 299/1/3 295/1/3
f 307/2/3 295/2/3 306/2/3
f 308/1/3 299/1/3 307/1/3
f 311/1/3 310/1/3 309/1/3
f 312/1/3 310/1/3 311/1/3
f 315/1/3 314/1/3 313/1/3
f 316/1/3 314/1/3 315/1/3
f 319/1/3 318/1/3 317/1/3
f 320/1/3 318/1/3 319/1/3
f 323/1/3 322/1/3 321/1/3
f 324/1/3 322/1/3 323/1/3
f 332/1/3 330/1/3 329/1/3
f 332/1/3 331/1/3 330/1/3
f 333/1/3 331/1/3 332/1/3
f 334/5/3 326/5/3 325/5/3
f 335/4/3 327/4/3 326/4/3
f 335/5/3 326/5/3 334/5/3
f 336/3/3 328/3/3 327/3/3
f 336/4/3 327/4/3 335/4/3
f 337/2/3 329/2/3 328/2/3
f 337/3/3 328/3/3 336/3/3
f 338/1/3 332/1/3 329/1/3
f 338/2/3 329/2/3 337/2/3
f 339/1/3 332/1/3 338/1/3
f 345/1/3 344/1/3 343/1/3
f 347/4/3 341/4/3 340/4/3
f 348/3/3 342/3/3 341/3/3
f 348/4/3 341/4/3 347/4/3
f 349/2/3 343/2/3 342/2/3
f 349/3/3 342/3/3 348/3/3
f 350/1/3 346/1/3 345/1/3
f 350/2/3 343/2/3 349/2/3
f 350/1/3 345/1/3 343/1/3
f 351/1/3 346/1/3 350/1/3
f 352/1/3 346/1/3 351/1/3
f 355/1/3 354/1/3 353/1/3
f 356/1/3 354/1/3 355/1/3
f 359/1/3 358/1/3 357/1/3
f 360/1/3 358/1/3 359/1/3
f 361/1/4 362/1/4 363/1/4
f 363/1/4 362/1/4 364/1/4
f 365/1/4 366/1/4 367/1/4
f 367/1/4 366/1/4 368/1/4
f 369/1/4 370/1/4 371/1/4
f 371/1/4 370/1/4 372/1/4
f 373/1/4 374/1/4 375/1/4
f 375/1/4 374/1/4 376/1/4
f 381/1/4 382/1/4 383/1/4
f 381/1/4 383/1/4 385/1/4
f 383/1/4 384/1/4 385/1/4
f 385/1/4 384/1/4 386/1/4
f 377/5/4 378/5/4 387/5/4
f 378/4/4 379/4/4 388/4/4
f 387/5/4 378/5/4 388/5/4
f 379/3/4 380/3/4 389/3/4
f 388/4/4 379/4/4 389/4/4
f 380/2/4 381/2/4 390/2/4
f 389/3/4 380/3/4 390/3/4
f 381/1/4 385/1/4 391/1/4
f 390/2/4 381/2/4 391/2/4
f 391/1/4 385/1/4 392/1/4
f 393/1/4 394/1/4 395/1/4
f 395/1/4 394/1/4 396/1/4
f 397/1/4 398/1/4 399/1/4
f 399/1/4 398/1/4 400/1/4
f 401/1/4 402/1/4 403/1/4
f 403/1/4 402/1/4 404/1/4
f 408/1/4 409/1/4 410/1/4
f 408/1/4 410/1/4 412/1/4
f 410/1/4 411/1/4 412/1/4
f 412/1/4 411/1/4 413/1/4
f 405/4/4 406/4/4 414/4/4
f 406/3/4 407/3/4 415/3/4
f 414/4/4 406/4/4 415/4/4
f 407/2/4 408/2/4 416/2/4
f 415/3/4 407/3/4 416/3/4
f 408/1/4 412/1/4 417/1/4
f 416/2/4 408/2/4 417/2/4
f 417/1/4 412/1/4 418/1/4
f 419/1/4 420/1/4 421/1/4
f 421/1/4 420/1/4 422/1/4
f 423/1/4 424/1/4 425/1/4
f 425/1/4 424/1/4 426/1/4
f 433/1/4 434/1/4 435/1/4
f 433/1/4 435/1/4 437/1/4
f 435/1/4 436/1/4 437/1/4
f 437/1/4 436/1/4 438/1/4
f 427/6/4 428/6/4 439/6/4
f 428/5/4 429/5/4 440/5/4
f 439/6/4 428/6/4 440/6/4
f 429/4/4 430/4/4 441/4/4
f 440/5/4 429/5/4 441/5/4
f 430/3/4 431/3/4 442/3/4
f 441/4/4 430/4/4 442/4/4
f 431/2/4 432/2/4 443/2/4
f 442/3/4 431/3/4 443/3/4
f 432/2/4 433/2/4 443/2/4
f 433/1/4 437/1/4 444/1/4
f 443/2/4 433/2/4 444/2/4
f 444/1/4 437/1/4 445/1/4
f 445/1/4 437/1/4 446/1/4
f 444/1/4 445/1/4 447/1/4
f 447/1/4 445/1/4 448/1/4
f 449/1/4 450/1/4 451/1/4
f 451/1/4 450/1/4 452/1/4
f 457/1/4 458/1/4 459/1/4
f 453/5/4 454/5/4 461/5/4
f 454/4/4 455/4/4 462/4/4
f 461/5/4 454/5/4 462/5/4
f 455/3/4 456/3/4 463/3/4
f 462/4/4 455/4/4 463/4/4
f 456/2/4 457/2/4 464/2/4
f 463/3/4 456/3/4 464/3/4
f 459/1/4 460/1/4 465/1/4
f 464/2/4 457/2/4 465/2/4
f 457/1/4 459/1/4 465/1/4
f 465/1/4 460/1/4 466/1/4
f 470/1/4 471/1/4 472/1/4
f 472/1/4 471/1/4 473/1/4
f 467/4/4 468/4/4 474/4/4
f 468/3/4 469/3/4 475/3/4
f 474/4/4 468/4/4 475/4/4
f 469/2/4 470/2/4 476/2/4
f 475/3/4 469/3/4 476/3/4
f 470/1/4 472/1/4 477/1/4
f 476/2/4 470/2/4 477/2/4
f 477/1/4 472/1/4 478/1/4
f 483/5/5 480/5/5 479/5/5
f 484/5/5 480/5/5 483/5/5
f 486/4/5 482/4/5 481/4/5
f 487/6/5 486/6/5 485/6/5
f 487/4/5 482/4/5 486/4/5
f 488/4/5 482/4/5 487/4/5
f 489/6/5 487/6/5 485/6/5
f 492/6/5 489/6/5 485/6/5
f 493/5/5 490/5/5 489/5/5
f 493/6/5 489/6/5 492/6/5
f 494/5/5 490/5/5 493/5/5
f 495/5/5 490/5/5 494/5/5
f 496/4/5 492/4/5 491/4/5
f 497/4/5 492/4/5 496/4/5
f 498/1/6 499/1/6 502/1/6
f 502/1/6 499/1/6 503/1/6
f 500/1/6 501/1/6 504/1/6
f 504/1/6 501/1/6 505/1/6
f 503/1/6 504/1/6 507/1/6
f 507/1/6 504/1/6 508/1/6
f 506/1/6 507/1/6 510/1/6
f 510/1/6 507/1/6 511/1/6
f 508/1/6 509/1/6 512/1/6
f 512/1/6 509/1/6 513/1/6
f 514/1/6 515/1/6 516/1/6
f 516/1/6 515/1/6 517/1/6
f 517/1/6 518/1/6 519/1/6
f 519/1/6 518/1/6 520/1/6
f 521/1/6 522/1/6 524/1/6
f 524/1/6 522/1/6 525/1/6
f 523/1/6 524/1/6 527/1/6
f 527/1/6 524/1/6 528/1/6
f 525/1/6 526/1/6 529/1/6
f 529/1/6 526/1/6 530/1/6
f 528/1/6 529/1/6 531/1/6
f 531/1/6 529/1/6 532/1/6
f 533/1/6 534/1/6 536/1/6
f 536/1/6 534/1/6 537/1/6
f 535/1/6 536/1/6 538/1/6
f 538/1/6 536/1/6 539/1/6
f 540/1/6 541/1/6 544/1/6
f 544/1/6 541/1/6 545/1/6
f 542/1/6 543/1/6 546/1/6
f 546/1/6 543/1/6 547/1/6
f 545/1/6 546/1/6 549/1/6
f 549/1/6 546/1/6 550/1/6
f 548/1/6 549/1/6 552/1/6
f 552/1/6 549/1/6 553/1/6
f 550/1/6 551/1/6 554/1/6
f 554/1/6 551/1/6 555/1/6
f 556/1/6 557/1/6 559/1/6
f 559/1/6 557/1/6 560/1/6
f 558/1/6 559/1/6 561/1/6
f 561/1/6 559/1/6 562/1/6
f 563/1/6 564/1/6 566/1/6
f 566/1/6 564/1/6 567/1/6
f 565/1/6 566/1/6 569/1/6
f 569/1/6 566/1/6 570/1/6
f 567/1/6 568/1/6 571/1/6
f 571/1/6 568/1/6 572/1/6
f 570/1/6 571/1/6 573/1/6
f 573/1/6 571/1/6 574/1/6
f 575/1/6 576/1/6 577/1/6
f 577/1/6 576/1/6 578/1/6
f 578/1/6 579/1/6 580/1/6
f 580/1/6 579/1/6 581/1/6
f 582/1/6 583/1/6 586/1/6
f 586/1/6 583/1/6 587/1/6
f 584/1/6 585/1/6 588/1/6
f 588/1/6 585/1/6 589/1/6
f 587/1/6 588/1/6 591/1/6
f 591/1/6 588/1/6 592/1/6
f 590/1/6 591/1/6 594/1/6
f 594/1/6 591/1/6 595/1/6
f 592/1/6 593/1/6 596/1/6
f 596/1/6 593/1/6 597/1/6
f 598/1/6 599/1/6 601/1/6
f 601/1/6 599/1/6 602/1/6
f 600/1/6 601/1/6 604/1/6
f 604/1/6 601/1/6 605/1/6
f 602/1/6 603/1/6 606/1/6
f 606/1/6 603/1/6 607/1/6
f 605/1/6 606/1/6 608/1/6
f 608/1/6 606/1/6 609/1/6
