# MagicaVoxel @ Ephtracy

# group
o 

# material
mtllib fish2.mtl
usemtl palette

# normals
vn -1 0 0
vn 1 0 0
vn 0 0 1
vn 0 0 -1
vn 0 -1 0
vn 0 1 0

# texcoords
vt 0.908203 0.5
vt 0.912109 0.5
vt 0.919922 0.5
vt 0.923828 0.5
vt 0.927734 0.5
vt 0.947266 0.5
vt 0.951172 0.5
vt 0.955078 0.5
vt 0.958984 0.5
vt 0.962891 0.5
vt 0.994141 0.5

# verts
v 3.6 2.2 -3.9
v 3.6 2.2 -4
v 3.6 2.3 -3.9
v 3.6 2.3 -4
v 3.7 2.1 -3.9
v 3.7 2.1 -4
v 3.7 2.2 -3.9
v 3.7 2.2 -4
v 3.7 2.3 -3.9
v 3.7 2.3 -4
v 3.7 2.4 -3.9
v 3.7 2.4 -4
v 3.9 2 -3.8
v 3.9 2 -3.9
v 3.9 2 -4
v 3.9 2 -4.1
v 3.9 2.1 -3.8
v 3.9 2.1 -3.9
v 3.9 2.1 -4
v 3.9 2.1 -4.1
v 3.9 2.2 -3.8
v 3.9 2.2 -3.9
v 3.9 2.2 -4
v 3.9 2.2 -4.1
v 3.9 2.4 -3.9
v 3.9 2.4 -4
v 3.9 2.5 -3.9
v 3.9 2.5 -4
v 4.3 2.1 -3.9
v 4.3 2.1 -4
v 4.3 2.2 -3.9
v 4.3 2.2 -4
v 4.3 2.3 -3.9
v 4.3 2.3 -4
v 4.3 2.4 -3.9
v 4.3 2.4 -4
v 4 2 -3.8
v 4 2 -3.9
v 4 2 -4
v 4 2 -4.1
v 4 2.1 -3.8
v 4 2.1 -3.9
v 4 2.1 -4
v 4 2.1 -4.1
v 4 2.2 -3.8
v 4 2.2 -3.9
v 4 2.2 -4
v 4 2.2 -4.1
v 4.1 2.1 -3.9
v 4.1 2.1 -4
v 4.1 2.2 -3.9
v 4.1 2.2 -4
v 4.1 2.3 -3.9
v 4.1 2.3 -4
v 4.1 2.4 -3.9
v 4.1 2.4 -4
v 4.2 2.4 -3.9
v 4.2 2.4 -4
v 4.2 2.5 -3.9
v 4.2 2.5 -4
v 4.3 2.2 -3.9
v 4.3 2.2 -4
v 4.3 2.3 -3.9
v 4.3 2.3 -4
v 4.4 2.1 -3.9
v 4.4 2.1 -4
v 4.4 2.2 -3.9
v 4.4 2.2 -4
v 4.4 2.3 -3.9
v 4.4 2.3 -4
v 4.4 2.4 -3.9
v 4.4 2.4 -4
v 3.9 2 -3.8
v 3.9 2.1 -3.8
v 3.9 2.2 -3.8
v 4 2 -3.8
v 4 2.1 -3.8
v 4 2.2 -3.8
v 3.6 2.2 -3.9
v 3.6 2.3 -3.9
v 3.7 2.1 -3.9
v 3.7 2.2 -3.9
v 3.7 2.3 -3.9
v 3.7 2.4 -3.9
v 3.8 2.2 -3.9
v 3.8 2.3 -3.9
v 3.8 2.4 -3.9
v 3.9 2.1 -3.9
v 3.9 2.2 -3.9
v 3.9 2.3 -3.9
v 3.9 2.4 -3.9
v 3.9 2.5 -3.9
v 4 2.1 -3.9
v 4 2.2 -3.9
v 4 2.3 -3.9
v 4 2.4 -3.9
v 4 2.5 -3.9
v 4.1 2.1 -3.9
v 4.1 2.2 -3.9
v 4.1 2.3 -3.9
v 4.1 2.4 -3.9
v 4.1 2.5 -3.9
v 4.2 2.2 -3.9
v 4.2 2.3 -3.9
v 4.2 2.4 -3.9
v 4.2 2.5 -3.9
v 4.3 2.1 -3.9
v 4.3 2.2 -3.9
v 4.3 2.3 -3.9
v 4.3 2.4 -3.9
v 4.4 2.1 -3.9
v 4.4 2.2 -3.9
v 4.4 2.3 -3.9
v 4.4 2.4 -3.9
v 3.9 2 -4
v 3.9 2.1 -4
v 4 2 -4
v 4 2.1 -4
v 3.9 2 -3.9
v 3.9 2.1 -3.9
v 4 2 -3.9
v 4 2.1 -3.9
v 3.6 2.2 -4
v 3.6 2.3 -4
v 3.7 2.1 -4
v 3.7 2.2 -4
v 3.7 2.3 -4
v 3.7 2.4 -4
v 3.8 2.2 -4
v 3.8 2.3 -4
v 3.8 2.4 -4
v 3.9 2.1 -4
v 3.9 2.2 -4
v 3.9 2.3 -4
v 3.9 2.4 -4
v 3.9 2.5 -4
v 4 2.1 -4
v 4 2.2 -4
v 4 2.3 -4
v 4 2.4 -4
v 4 2.5 -4
v 4.1 2.1 -4
v 4.1 2.2 -4
v 4.1 2.3 -4
v 4.1 2.4 -4
v 4.1 2.5 -4
v 4.2 2.2 -4
v 4.2 2.3 -4
v 4.2 2.4 -4
v 4.2 2.5 -4
v 4.3 2.1 -4
v 4.3 2.2 -4
v 4.3 2.3 -4
v 4.3 2.4 -4
v 4.4 2.1 -4
v 4.4 2.2 -4
v 4.4 2.3 -4
v 4.4 2.4 -4
v 3.9 2 -4.1
v 3.9 2.1 -4.1
v 3.9 2.2 -4.1
v 4 2 -4.1
v 4 2.1 -4.1
v 4 2.2 -4.1
v 3.9 2 -3.8
v 4 2 -3.8
v 3.9 2 -3.9
v 4 2 -3.9
v 3.9 2 -4
v 4 2 -4
v 3.9 2 -4.1
v 4 2 -4.1
v 3.7 2.1 -3.9
v 3.9 2.1 -3.9
v 4 2.1 -3.9
v 4.1 2.1 -3.9
v 4.3 2.1 -3.9
v 4.4 2.1 -3.9
v 3.7 2.1 -4
v 3.9 2.1 -4
v 4 2.1 -4
v 4.1 2.1 -4
v 4.3 2.1 -4
v 4.4 2.1 -4
v 3.6 2.2 -3.9
v 3.7 2.2 -3.9
v 4.1 2.2 -3.9
v 4.2 2.2 -3.9
v 4.3 2.2 -3.9
v 3.6 2.2 -4
v 3.7 2.2 -4
v 4.1 2.2 -4
v 4.2 2.2 -4
v 4.3 2.2 -4
v 4.3 2.3 -3.9
v 4.4 2.3 -3.9
v 4.3 2.3 -4
v 4.4 2.3 -4
v 4.1 2.4 -3.9
v 4.2 2.4 -3.9
v 4.1 2.4 -4
v 4.2 2.4 -4
v 3.9 2.2 -3.8
v 4 2.2 -3.8
v 3.9 2.2 -3.9
v 4 2.2 -3.9
v 4.3 2.2 -3.9
v 4.4 2.2 -3.9
v 3.9 2.2 -4
v 4 2.2 -4
v 4.3 2.2 -4
v 4.4 2.2 -4
v 3.9 2.2 -4.1
v 4 2.2 -4.1
v 3.6 2.3 -3.9
v 3.7 2.3 -3.9
v 4.1 2.3 -3.9
v 4.2 2.3 -3.9
v 4.3 2.3 -3.9
v 3.6 2.3 -4
v 3.7 2.3 -4
v 4.1 2.3 -4
v 4.2 2.3 -4
v 4.3 2.3 -4
v 3.7 2.4 -3.9
v 3.8 2.4 -3.9
v 3.9 2.4 -3.9
v 4.3 2.4 -3.9
v 4.4 2.4 -3.9
v 3.7 2.4 -4
v 3.8 2.4 -4
v 3.9 2.4 -4
v 4.3 2.4 -4
v 4.4 2.4 -4
v 3.9 2.5 -3.9
v 4 2.5 -3.9
v 4.1 2.5 -3.9
v 4.2 2.5 -3.9
v 3.9 2.5 -4
v 4 2.5 -4
v 4.1 2.5 -4
v 4.2 2.5 -4

# faces
f 3/1/1 2/1/1 1/1/1
f 4/1/1 2/1/1 3/1/1
f 7/1/1 6/1/1 5/1/1
f 8/1/1 6/1/1 7/1/1
f 11/1/1 10/1/1 9/1/1
f 12/1/1 10/1/1 11/1/1
f 17/6/1 14/6/1 13/6/1
f 18/6/1 14/6/1 17/6/1
f 19/6/1 16/6/1 15/6/1
f 20/6/1 16/6/1 19/6/1
f 21/7/1 18/7/1 17/7/1
f 22/7/1 18/7/1 21/7/1
f 23/7/1 20/7/1 19/7/1
f 24/7/1 20/7/1 23/7/1
f 27/10/1 26/10/1 25/10/1
f 28/10/1 26/10/1 27/10/1
f 31/8/1 30/8/1 29/8/1
f 32/8/1 30/8/1 31/8/1
f 35/7/1 34/7/1 33/7/1
f 36/7/1 34/7/1 35/7/1
f 37/6/2 38/6/2 41/6/2
f 41/6/2 38/6/2 42/6/2
f 39/6/2 40/6/2 43/6/2
f 43/6/2 40/6/2 44/6/2
f 41/7/2 42/7/2 45/7/2
f 45/7/2 42/7/2 46/7/2
f 43/7/2 44/7/2 47/7/2
f 47/7/2 44/7/2 48/7/2
f 49/5/2 50/5/2 51/5/2
f 51/5/2 50/5/2 52/5/2
f 53/3/2 54/3/2 55/3/2
f 55/3/2 54/3/2 56/3/2
f 57/8/2 58/8/2 59/8/2
f 59/8/2 58/8/2 60/8/2
f 61/9/2 62/9/2 63/9/2
f 63/9/2 62/9/2 64/9/2
f 65/8/2 66/8/2 67/8/2
f 67/8/2 66/8/2 68/8/2
f 69/7/2 70/7/2 71/7/2
f 71/7/2 70/7/2 72/7/2
f 76/6/3 74/6/3 73/6/3
f 77/7/3 75/7/3 74/7/3
f 77/6/3 74/6/3 76/6/3
f 78/7/3 75/7/3 77/7/3
f 82/1/3 80/1/3 79/1/3
f 83/1/3 80/1/3 82/1/3
f 85/1/3 82/1/3 81/1/3
f 85/1/3 84/1/3 83/1/3
f 85/1/3 83/1/3 82/1/3
f 86/1/3 84/1/3 85/1/3
f 87/1/3 84/1/3 86/1/3
f 88/1/3 85/1/3 81/1/3
f 89/11/3 86/11/3 85/11/3
f 89/1/3 85/1/3 88/1/3
f 90/2/3 87/2/3 86/2/3
f 90/11/3 86/11/3 89/11/3
f 91/2/3 87/2/3 90/2/3
f 94/2/3 90/2/3 89/2/3
f 95/3/3 91/3/3 90/3/3
f 95/2/3 90/2/3 94/2/3
f 96/10/3 92/10/3 91/10/3
f 96/3/3 91/3/3 95/3/3
f 97/10/3 92/10/3 96/10/3
f 98/5/3 94/5/3 93/5/3
f 99/4/3 95/4/3 94/4/3
f 99/5/3 94/5/3 98/5/3
f 100/3/3 96/3/3 95/3/3
f 100/4/3 95/4/3 99/4/3
f 101/9/3 97/9/3 96/9/3
f 101/3/3 96/3/3 100/3/3
f 102/9/3 97/9/3 101/9/3
f 103/5/3 100/5/3 99/5/3
f 104/5/3 100/5/3 103/5/3
f 105/8/3 102/8/3 101/8/3
f 106/8/3 102/8/3 105/8/3
f 108/9/3 104/9/3 103/9/3
f 109/9/3 104/9/3 108/9/3
f 111/8/3 108/8/3 107/8/3
f 112/8/3 108/8/3 111/8/3
f 113/7/3 110/7/3 109/7/3
f 114/7/3 110/7/3 113/7/3
f 117/6/3 116/6/3 115/6/3
f 118/6/3 116/6/3 117/6/3
f 119/6/4 120/6/4 121/6/4
f 121/6/4 120/6/4 122/6/4
f 123/1/4 124/1/4 126/1/4
f 126/1/4 124/1/4 127/1/4
f 125/1/4 126/1/4 129/1/4
f 127/1/4 128/1/4 129/1/4
f 126/1/4 127/1/4 129/1/4
f 129/1/4 128/1/4 130/1/4
f 130/1/4 128/1/4 131/1/4
f 125/1/4 129/1/4 132/1/4
f 129/11/4 130/11/4 133/11/4
f 132/1/4 129/1/4 133/1/4
f 130/2/4 131/2/4 134/2/4
f 133/11/4 130/11/4 134/11/4
f 134/2/4 131/2/4 135/2/4
f 133/2/4 134/2/4 138/2/4
f 134/3/4 135/3/4 139/3/4
f 138/2/4 134/2/4 139/2/4
f 135/10/4 136/10/4 140/10/4
f 139/3/4 135/3/4 140/3/4
f 140/10/4 136/10/4 141/10/4
f 137/5/4 138/5/4 142/5/4
f 138/4/4 139/4/4 143/4/4
f 142/5/4 138/5/4 143/5/4
f 139/3/4 140/3/4 144/3/4
f 143/4/4 139/4/4 144/4/4
f 140/9/4 141/9/4 145/9/4
f 144/3/4 140/3/4 145/3/4
f 145/9/4 141/9/4 146/9/4
f 143/5/4 144/5/4 147/5/4
f 147/5/4 144/5/4 148/5/4
f 145/8/4 146/8/4 149/8/4
f 149/8/4 146/8/4 150/8/4
f 147/9/4 148/9/4 152/9/4
f 152/9/4 148/9/4 153/9/4
f 151/8/4 152/8/4 155/8/4
f 155/8/4 152/8/4 156/8/4
f 153/7/4 154/7/4 157/7/4
f 157/7/4 154/7/4 158/7/4
f 159/6/4 160/6/4 162/6/4
f 160/7/4 161/7/4 163/7/4
f 162/6/4 160/6/4 163/6/4
f 163/7/4 161/7/4 164/7/4
f 167/6/5 166/6/5 165/6/5
f 168/6/5 166/6/5 167/6/5
f 171/6/5 170/6/5 169/6/5
f 172/6/5 170/6/5 171/6/5
f 179/1/5 174/1/5 173/1/5
f 180/3/5 175/3/5 174/3/5
f 180/1/5 174/1/5 179/1/5
f 181/5/5 176/5/5 175/5/5
f 181/3/5 175/3/5 180/3/5
f 182/5/5 176/5/5 181/5/5
f 183/8/5 178/8/5 177/8/5
f 184/8/5 178/8/5 183/8/5
f 190/1/5 186/1/5 185/1/5
f 191/1/5 186/1/5 190/1/5
f 192/5/5 188/5/5 187/5/5
f 193/9/5 189/9/5 188/9/5
f 193/5/5 188/5/5 192/5/5
f 194/9/5 189/9/5 193/9/5
f 197/7/5 196/7/5 195/7/5
f 198/7/5 196/7/5 197/7/5
f 201/8/5 200/8/5 199/8/5
f 202/8/5 200/8/5 201/8/5
f 203/7/6 204/7/6 205/7/6
f 205/7/6 204/7/6 206/7/6
f 207/8/6 208/8/6 211/8/6
f 211/8/6 208/8/6 212/8/6
f 209/7/6 210/7/6 213/7/6
f 213/7/6 210/7/6 214/7/6
f 215/1/6 216/1/6 220/1/6
f 220/1/6 216/1/6 221/1/6
f 217/5/6 218/5/6 222/5/6
f 218/9/6 219/9/6 223/9/6
f 222/5/6 218/5/6 223/5/6
f 223/9/6 219/9/6 224/9/6
f 225/1/6 226/1/6 230/1/6
f 226/2/6 227/2/6 231/2/6
f 230/1/6 226/1/6 231/1/6
f 231/2/6 227/2/6 232/2/6
f 228/7/6 229/7/6 233/7/6
f 233/7/6 229/7/6 234/7/6
f 235/10/6 236/10/6 239/10/6
f 236/9/6 237/9/6 240/9/6
f 239/10/6 236/10/6 240/10/6
f 237/8/6 238/8/6 241/8/6
f 240/9/6 237/9/6 241/9/6
f 241/8/6 238/8/6 242/8/6
